<svg width="24" height="24" viewBox="0 0 24 24" fill="none" xmlns="http://www.w3.org/2000/svg">
<path fill-rule="evenodd" clip-rule="evenodd" d="M3.3749 11.0173C8.74359 8.71695 12.3235 7.20047 14.1148 6.46777C19.2291 4.37576 20.2919 4.01227 20.9845 4.00031C21.1369 3.99766 21.4775 4.03481 21.6983 4.21086C21.8845 4.3596 21.9358 4.56036 21.9604 4.70136C21.9849 4.84236 22.0154 5.16348 21.991 5.41436C21.7139 8.2782 20.5148 15.228 19.9047 18.4356C19.6465 19.7929 19.1382 20.2479 18.646 20.2925C17.5765 20.3892 16.7645 19.5973 15.7287 18.9296C14.1079 17.8847 13.1922 17.2341 11.6188 16.2146C9.80054 15.0362 10.9793 14.3885 12.0155 13.3301C12.2866 13.0531 16.9988 8.83798 17.0899 8.4556C17.1013 8.40778 17.1119 8.22957 17.0042 8.13543C16.8965 8.0413 16.7376 8.07349 16.6229 8.09903C16.4604 8.1353 13.871 9.81844 8.85486 13.1485C8.11986 13.6448 7.45414 13.8867 6.85768 13.874C6.20014 13.86 4.93528 13.5084 3.99498 13.2078C2.84167 12.839 1.92503 12.6441 2.00484 12.018C2.04642 11.6919 2.5031 11.3583 3.3749 11.0173Z" fill="#43493D"/>
</svg>
